<?xml version="1.0" encoding="utf-8"?>
<!-- Generator: Adobe Illustrator 19.2.0, SVG Export Plug-In . SVG Version: 6.00 Build 0)  -->
<!DOCTYPE svg PUBLIC "-//W3C//DTD SVG 1.1//EN" "http://www.w3.org/Graphics/SVG/1.1/DTD/svg11.dtd">
<svg version="1.1" id="Layer_1" xmlns="http://www.w3.org/2000/svg" xmlns:xlink="http://www.w3.org/1999/xlink" x="0px" y="0px"
	 viewBox="0 0 500 500" enable-background="new 0 0 500 500" xml:space="preserve">
<g>
	<g>
		<g>
			
				<circle fill="#FFFFFF" stroke="#76A5AF" stroke-width="8" stroke-linecap="round" stroke-linejoin="round" stroke-miterlimit="10" cx="337.9" cy="195.5" r="24.8"/>
			<g id="XMLID_3_">
				<g>
					<path fill="#FFFFFF" d="M387.4,273.9v39.4h-99v-39.4c0-19.4,11.2-36.3,27.5-44.4c6.3,4.1,13.9,6.5,22,6.5s15.7-2.4,22-6.5
						c4.8,2.4,9.2,5.6,13,9.4C381.9,247.9,387.4,260.2,387.4,273.9z"/>
				</g>
				<g>
					
						<path fill="none" stroke="#76A5AF" stroke-width="8" stroke-linecap="round" stroke-linejoin="round" stroke-miterlimit="10" d="
						M359.9,229.6c4.8,2.4,9.2,5.6,13,9.4c9,9,14.5,21.3,14.5,35v39.4h-99v-39.4c0-19.4,11.2-36.3,27.5-44.4"/>
					
						<path fill="none" stroke="#76A5AF" stroke-width="8" stroke-linecap="round" stroke-linejoin="round" stroke-miterlimit="10" d="
						M315.9,229.6c6.3,4.1,13.9,6.5,22,6.5s15.7-2.4,22-6.5"/>
				</g>
			</g>
		</g>
		<g>
			
				<circle fill="#FFFFFF" stroke="#76A5AF" stroke-width="8" stroke-linecap="round" stroke-linejoin="round" stroke-miterlimit="10" cx="163.4" cy="195.5" r="24.8"/>
			<g id="XMLID_4_">
				<g>
					<path fill="#FFFFFF" d="M212.9,273.9v39.4h-99v-39.4c0-19.4,11.2-36.3,27.5-44.4c6.3,4.1,13.9,6.5,22,6.5
						c8.1,0,15.7-2.4,22-6.5c4.8,2.4,9.2,5.6,13,9.4C207.3,247.9,212.9,260.2,212.9,273.9z"/>
				</g>
				<g>
					
						<path fill="none" stroke="#76A5AF" stroke-width="8" stroke-linecap="round" stroke-linejoin="round" stroke-miterlimit="10" d="
						M185.4,229.6c4.8,2.4,9.2,5.6,13,9.4c9,9,14.5,21.3,14.5,35v39.4h-99v-39.4c0-19.4,11.2-36.3,27.5-44.4"/>
					
						<path fill="none" stroke="#76A5AF" stroke-width="8" stroke-linecap="round" stroke-linejoin="round" stroke-miterlimit="10" d="
						M141.4,229.6c6.3,4.1,13.9,6.5,22,6.5c8.1,0,15.7-2.4,22-6.5"/>
				</g>
			</g>
		</g>
	</g>
	<g>
		
			<circle fill="#FFFFFF" stroke="#76A5AF" stroke-width="8" stroke-linecap="round" stroke-linejoin="round" stroke-miterlimit="10" cx="250.7" cy="219.3" r="24.8"/>
		<g id="XMLID_2_">
			<g>
				<path fill="#FFFFFF" d="M300.2,297.7v39.4h-99v-39.4c0-19.4,11.2-36.3,27.5-44.4c6.3,4.1,13.9,6.5,22,6.5c8.1,0,15.7-2.4,22-6.5
					c4.8,2.4,9.2,5.6,13,9.4C294.6,271.7,300.2,284.1,300.2,297.7z"/>
			</g>
			<g>
				
					<path fill="none" stroke="#76A5AF" stroke-width="8" stroke-linecap="round" stroke-linejoin="round" stroke-miterlimit="10" d="
					M272.7,253.4c4.8,2.4,9.2,5.6,13,9.4c9,9,14.5,21.3,14.5,35v39.4h-99v-39.4c0-19.4,11.2-36.3,27.5-44.4"/>
				
					<path fill="none" stroke="#76A5AF" stroke-width="8" stroke-linecap="round" stroke-linejoin="round" stroke-miterlimit="10" d="
					M228.7,253.4c6.3,4.1,13.9,6.5,22,6.5c8.1,0,15.7-2.4,22-6.5"/>
			</g>
		</g>
	</g>
</g>
<circle fill="none" stroke="#76A5AF" stroke-width="10" stroke-linecap="round" stroke-linejoin="round" stroke-miterlimit="10" cx="250" cy="250" r="222.4"/>
</svg>
