<svg xmlns="http://www.w3.org/2000/svg" viewBox="0 0 500 500"><defs><style>.a,.b{fill:#fff;}.a,.c{stroke:#76a5af;stroke-linecap:round;stroke-linejoin:round;stroke-width:10px;}.c{fill:none;}</style></defs><title>PRIMR Icons</title><circle class="a" cx="392.55" cy="158.03" r="40.31"/><path class="b" d="M473,285.44V349.5H312.08V285.44a80.43,80.43,0,0,1,44.71-72.1,65.91,65.91,0,0,0,71.52,0A80.57,80.57,0,0,1,473,285.44Z"/><path class="c" d="M428.31,213.34A80.57,80.57,0,0,1,473,285.44V349.5H312.08V285.44a80.43,80.43,0,0,1,44.71-72.1"/><path class="c" d="M356.79,213.34a65.91,65.91,0,0,0,71.52,0"/><circle class="a" cx="108.79" cy="158.03" r="40.31"/><path class="b" d="M189.26,285.44V349.5H28.32V285.44A80.43,80.43,0,0,1,73,213.34a65.91,65.91,0,0,0,71.52,0A80.57,80.57,0,0,1,189.26,285.44Z"/><path class="c" d="M144.55,213.34a80.57,80.57,0,0,1,44.71,72.1V349.5H28.32V285.44A80.43,80.43,0,0,1,73,213.34"/><path class="c" d="M73,213.34a65.91,65.91,0,0,0,71.52,0"/><circle class="a" cx="250.67" cy="196.72" r="40.31"/><path class="b" d="M331.14,324.14v64.06H170.2V324.14A80.43,80.43,0,0,1,214.91,252a65.91,65.91,0,0,0,71.52,0A80.57,80.57,0,0,1,331.14,324.14Z"/><path class="c" d="M286.43,252a80.57,80.57,0,0,1,44.71,72.1v64.06H170.2V324.14A80.43,80.43,0,0,1,214.91,252"/><path class="c" d="M214.91,252a65.91,65.91,0,0,0,71.52,0"/></svg>