<?xml version="1.0" encoding="utf-8"?>
<!-- Generator: Adobe Illustrator 19.2.0, SVG Export Plug-In . SVG Version: 6.00 Build 0)  -->
<!DOCTYPE svg PUBLIC "-//W3C//DTD SVG 1.1//EN" "http://www.w3.org/Graphics/SVG/1.1/DTD/svg11.dtd">
<svg version="1.1" id="Layer_1" xmlns="http://www.w3.org/2000/svg" xmlns:xlink="http://www.w3.org/1999/xlink" x="0px" y="0px"
	 viewBox="0 0 500 500" enable-background="new 0 0 500 500" xml:space="preserve">
<g>
	<g id="XMLID_5_">
		
			<polygon fill="none" stroke="#6D9EEB" stroke-width="8" stroke-linecap="round" stroke-linejoin="round" stroke-miterlimit="10" points="
			346.3,256.5 346.3,172.9 153.1,172.9 153.1,256.5 117.3,256.5 249.7,347.1 382.1,256.5 		"/>
	</g>
	<g>
		<path fill="#6D9EEB" stroke="#6D9EEB" stroke-width="6" d="M219.3,284.9l0.4-0.4c0.4-0.4,1-0.4,1.5,0c1.8,1.6,12.4,11.1,28.5,11.4
			v-50c-18-4.9-31.4-10.5-31.4-27.7c0-11.8,8.7-25.4,31.4-25.7V186c0-0.6,0.4-1,1-1h0.6c0.6,0,1,0.4,1,1v6.5
			c13.7,0.6,23.6,7.4,23.6,7.4c0.1,0.1,0.4,0.6,0.4,0.9l-0.3,0.6c0,0.9-0.9,1.3-1.6,0.9c0,0-9.6-6.5-22.1-7.1v48.6
			c19.2,5.5,31,12.5,31,28.9c0,13.7-14.5,25.1-31,25.8v16.7c0,0.4-0.4,0.9-1,0.9h-0.6c-0.6,0-1-0.4-1-0.9v-16.7
			c-17-0.4-28.6-10.5-30.4-12.3C218.9,285.9,218.9,285.3,219.3,284.9z M249.7,195c-21,0.3-28.8,12.4-28.8,23
			c0,15.1,11.5,20.4,28.8,24.9V195z M280.7,272.6c0-15.1-11.5-21.3-28.3-26.1v49.3C267.4,295.2,280.7,285,280.7,272.6z"/>
	</g>
</g>
<circle fill="none" stroke="#6D9EEB" stroke-width="10" stroke-linecap="round" stroke-linejoin="round" stroke-miterlimit="10" cx="250" cy="250" r="222.4"/>
</svg>
