<svg xmlns="http://www.w3.org/2000/svg" viewBox="0 0 500 500"><defs><style>.a{fill:none;stroke-linecap:round;stroke-linejoin:round;stroke-width:10px;}.a,.b{stroke:#6d9eeb;}.b{fill:#6d9eeb;stroke-width:4px;}</style></defs><title>PRIMR Icons</title><polygon class="a" points="412.39 244 412.39 103.2 87.07 103.2 87.07 244 26.75 244 249.72 396.61 472.69 244 412.39 244"/><path class="b" d="M198.53,291.74l0.75-.75a1.66,1.66,0,0,1,2.48,0c3,2.73,20.87,18.64,48,19.14V225.89c-30.32-8.2-52.93-17.64-52.93-46.72,0-19.88,14.66-42.74,52.93-43.24V125.24a1.7,1.7,0,0,1,1.74-1.74h1a1.7,1.7,0,0,1,1.74,1.74v10.93A83.08,83.08,0,0,1,294,148.6a2.84,2.84,0,0,1,.75,1.49l-0.5,1a1.74,1.74,0,0,1-2.73,1.49s-16.15-10.93-37.28-11.93v81.76c32.31,9.19,52.19,21.12,52.19,48.71,0,23.11-24.35,42.25-52.19,43.49v28.08a1.66,1.66,0,0,1-1.74,1.49h-1a1.66,1.66,0,0,1-1.74-1.49V314.61c-28.58-.75-48.21-17.64-51.19-20.63A1.39,1.39,0,0,1,198.53,291.74ZM249.72,140.4c-35.29.5-48.46,20.87-48.46,38.77,0,25.35,19.38,34.29,48.46,42V140.4Zm52.19,130.72c0-25.35-19.38-35.79-47.71-44v83C279.54,309.14,301.91,292,301.91,271.12Z"/></svg>