<svg xmlns="http://www.w3.org/2000/svg" viewBox="0 0 500 500"><defs><style>.a{fill:#fff;stroke:#93c47d;stroke-linecap:round;stroke-linejoin:round;stroke-width:10px;}</style></defs><title>PRIMR Icons</title><rect class="a" x="65.27" y="183.56" width="369.46" height="238.01"/><polygon class="a" points="392.11 77.92 475 183.86 25 183.86 107.89 77.92 392.11 77.92"/><path class="a" d="M81.25,184.69a28.13,28.13,0,0,1-56.25,0"/><path class="a" d="M137.5,184.69a28.12,28.12,0,1,1-56.25,0"/><path class="a" d="M193.75,184.69a28.12,28.12,0,0,1-56.25,0"/><path class="a" d="M250,184.69a28.12,28.12,0,0,1-56.25,0"/><path class="a" d="M306.25,184.69a28.12,28.12,0,1,1-56.25,0"/><path class="a" d="M362.5,184.69a28.13,28.13,0,0,1-56.25,0"/><path class="a" d="M418.75,184.69a28.13,28.13,0,0,1-56.25,0"/><path class="a" d="M475,184.69a28.13,28.13,0,0,1-56.25,0"/><line class="a" x1="81.25" y1="184.69" x2="143.25" y2="77.92"/><line class="a" x1="137.5" y1="184.69" x2="178.83" y2="77.92"/><line class="a" x1="193.75" y1="184.69" x2="214.42" y2="77.92"/><line class="a" x1="250" y1="184.69" x2="250" y2="77.92"/><line class="a" x1="306.25" y1="184.69" x2="285.58" y2="77.92"/><line class="a" x1="362.5" y1="184.69" x2="321.17" y2="77.92"/><line class="a" x1="418.75" y1="184.69" x2="356.75" y2="77.92"/><path class="a" d="M184.81,291.44a40.07,40.07,0,0,0-80.13,0V421.57h80.13V291.44Z"/><rect class="a" x="247.96" y="244.44" width="128.26" height="98.46"/><rect class="a" x="236.1" y="342.9" width="151.98" height="17.79"/><circle class="a" cx="165.62" cy="349.11" r="5.85"/></svg>