<?xml version="1.0" encoding="utf-8"?>
<!-- Generator: Adobe Illustrator 19.2.0, SVG Export Plug-In . SVG Version: 6.00 Build 0)  -->
<!DOCTYPE svg PUBLIC "-//W3C//DTD SVG 1.1//EN" "http://www.w3.org/Graphics/SVG/1.1/DTD/svg11.dtd">
<svg version="1.1" id="Layer_1" xmlns="http://www.w3.org/2000/svg" xmlns:xlink="http://www.w3.org/1999/xlink" x="0px" y="0px"
	 viewBox="0 0 500 500" enable-background="new 0 0 500 500" xml:space="preserve">
<g>
	
		<rect x="144.2" y="212.9" fill="#FFFFFF" stroke="#93C47D" stroke-width="7" stroke-linecap="round" stroke-linejoin="round" stroke-miterlimit="10" width="211.7" height="136.4"/>
	
		<polygon fill="#FFFFFF" stroke="#93C47D" stroke-width="7" stroke-linecap="round" stroke-linejoin="round" stroke-miterlimit="10" points="
		331.4,152.4 378.9,213.1 121.1,213.1 168.6,152.4 	"/>
	<g>
		
			<path fill="#FFFFFF" stroke="#93C47D" stroke-width="7" stroke-linecap="round" stroke-linejoin="round" stroke-miterlimit="10" d="
			M153.3,213.5c0,8.9-7.2,16.1-16.1,16.1s-16.1-7.2-16.1-16.1"/>
		
			<path fill="#FFFFFF" stroke="#93C47D" stroke-width="7" stroke-linecap="round" stroke-linejoin="round" stroke-miterlimit="10" d="
			M185.5,213.5c0,8.9-7.2,16.1-16.1,16.1s-16.1-7.2-16.1-16.1"/>
		
			<path fill="#FFFFFF" stroke="#93C47D" stroke-width="7" stroke-linecap="round" stroke-linejoin="round" stroke-miterlimit="10" d="
			M217.8,213.5c0,8.9-7.2,16.1-16.1,16.1s-16.1-7.2-16.1-16.1"/>
		
			<path fill="#FFFFFF" stroke="#93C47D" stroke-width="7" stroke-linecap="round" stroke-linejoin="round" stroke-miterlimit="10" d="
			M250,213.5c0,8.9-7.2,16.1-16.1,16.1c-8.9,0-16.1-7.2-16.1-16.1"/>
		
			<path fill="#FFFFFF" stroke="#93C47D" stroke-width="7" stroke-linecap="round" stroke-linejoin="round" stroke-miterlimit="10" d="
			M282.2,213.5c0,8.9-7.2,16.1-16.1,16.1c-8.9,0-16.1-7.2-16.1-16.1"/>
		
			<path fill="#FFFFFF" stroke="#93C47D" stroke-width="7" stroke-linecap="round" stroke-linejoin="round" stroke-miterlimit="10" d="
			M314.5,213.5c0,8.9-7.2,16.1-16.1,16.1s-16.1-7.2-16.1-16.1"/>
		
			<path fill="#FFFFFF" stroke="#93C47D" stroke-width="7" stroke-linecap="round" stroke-linejoin="round" stroke-miterlimit="10" d="
			M346.7,213.5c0,8.9-7.2,16.1-16.1,16.1c-8.9,0-16.1-7.2-16.1-16.1"/>
		
			<path fill="#FFFFFF" stroke="#93C47D" stroke-width="7" stroke-linecap="round" stroke-linejoin="round" stroke-miterlimit="10" d="
			M378.9,213.5c0,8.9-7.2,16.1-16.1,16.1c-8.9,0-16.1-7.2-16.1-16.1"/>
	</g>
	
		<line fill="#FFFFFF" stroke="#93C47D" stroke-width="7" stroke-linecap="round" stroke-linejoin="round" stroke-miterlimit="10" x1="153.3" y1="213.5" x2="188.8" y2="152.4"/>
	
		<line fill="#FFFFFF" stroke="#93C47D" stroke-width="7" stroke-linecap="round" stroke-linejoin="round" stroke-miterlimit="10" x1="185.5" y1="213.5" x2="209.2" y2="152.4"/>
	
		<line fill="#FFFFFF" stroke="#93C47D" stroke-width="7" stroke-linecap="round" stroke-linejoin="round" stroke-miterlimit="10" x1="217.8" y1="213.5" x2="229.6" y2="152.4"/>
	
		<line fill="#FFFFFF" stroke="#93C47D" stroke-width="7" stroke-linecap="round" stroke-linejoin="round" stroke-miterlimit="10" x1="250" y1="213.5" x2="250" y2="152.4"/>
	
		<line fill="#FFFFFF" stroke="#93C47D" stroke-width="7" stroke-linecap="round" stroke-linejoin="round" stroke-miterlimit="10" x1="282.2" y1="213.5" x2="270.4" y2="152.4"/>
	
		<line fill="#FFFFFF" stroke="#93C47D" stroke-width="7" stroke-linecap="round" stroke-linejoin="round" stroke-miterlimit="10" x1="314.5" y1="213.5" x2="290.8" y2="152.4"/>
	
		<line fill="#FFFFFF" stroke="#93C47D" stroke-width="7" stroke-linecap="round" stroke-linejoin="round" stroke-miterlimit="10" x1="346.7" y1="213.5" x2="311.2" y2="152.4"/>
	<g id="XMLID_1_">
		
			<path fill="#FFFFFF" stroke="#93C47D" stroke-width="7" stroke-linecap="round" stroke-linejoin="round" stroke-miterlimit="10" d="
			M212.6,274.7c0-12.6-10.4-23-23-23c-12.6,0-23,10.4-23,23v74.6h45.9V274.7z"/>
	</g>
	<g>
		
			<rect x="248.8" y="247.8" fill="#FFFFFF" stroke="#93C47D" stroke-width="7" stroke-linecap="round" stroke-linejoin="round" stroke-miterlimit="10" width="73.5" height="56.4"/>
		
			<rect x="242" y="304.2" fill="#FFFFFF" stroke="#93C47D" stroke-width="7" stroke-linecap="round" stroke-linejoin="round" stroke-miterlimit="10" width="87.1" height="10.2"/>
	</g>
	
		<circle fill="#FFFFFF" stroke="#93C47D" stroke-width="7" stroke-linecap="round" stroke-linejoin="round" stroke-miterlimit="10" cx="201.7" cy="307.7" r="3.4"/>
</g>
<circle fill="none" stroke="#93C47D" stroke-width="10" stroke-linecap="round" stroke-linejoin="round" stroke-miterlimit="10" cx="250" cy="250" r="222.4"/>
</svg>
